<?xml version="1.0" encoding="UTF-8" standalone="no"?>
<!-- Created with Inkscape (http://www.inkscape.org/) -->

<svg
   xmlns:dc="http://purl.org/dc/elements/1.1/"
   xmlns:cc="http://creativecommons.org/ns#"
   xmlns:rdf="http://www.w3.org/1999/02/22-rdf-syntax-ns#"
   xmlns:svg="http://www.w3.org/2000/svg"
   xmlns="http://www.w3.org/2000/svg"
   xmlns:xlink="http://www.w3.org/1999/xlink"
   xmlns:sodipodi="http://sodipodi.sourceforge.net/DTD/sodipodi-0.dtd"
   xmlns:inkscape="http://www.inkscape.org/namespaces/inkscape"
   id="svg4021"
   sodipodi:version="0.32"
   inkscape:version="0.47 r22583"
   width="160"
   height="51"
   version="1.0"
   sodipodi:docname="install-gui-title.svg"
   inkscape:output_extension="org.inkscape.output.svg.inkscape"
   inkscape:export-filename="/home/bernie/svn/noc.sidux.com/liveusb-creator/trunk/data/pixmaps/liveusb-creator-header.png"
   inkscape:export-xdpi="90"
   inkscape:export-ydpi="90">
  <metadata
     id="metadata4027">
    <rdf:RDF>
      <cc:Work
         rdf:about="">
        <dc:format>image/svg+xml</dc:format>
        <dc:type
           rdf:resource="http://purl.org/dc/dcmitype/StillImage" />
        <dc:title />
      </cc:Work>
    </rdf:RDF>
  </metadata>
  <defs
     id="defs4025">
    <linearGradient
       inkscape:collect="always"
       id="linearGradient16283">
      <stop
         style="stop-color:#ad1318;stop-opacity:1;"
         offset="0"
         id="stop16285" />
      <stop
         style="stop-color:#7d1117;stop-opacity:1"
         offset="1"
         id="stop16287" />
    </linearGradient>
    <linearGradient
       id="linearGradient4810"
       inkscape:collect="always">
      <stop
         id="stop4812"
         offset="0"
         style="stop-color:#7d1117;stop-opacity:1" />
      <stop
         id="stop4814"
         offset="1"
         style="stop-color:#ad1318;stop-opacity:1" />
    </linearGradient>
    <radialGradient
       inkscape:collect="always"
       xlink:href="#linearGradient4810"
       id="radialGradient16130"
       gradientUnits="userSpaceOnUse"
       gradientTransform="matrix(0.08332911,0.52326827,-0.93420132,0.15286844,2403.3591,-144.58575)"
       cx="1424"
       cy="821.76373"
       fx="1424"
       fy="821.76373"
       r="1054.7032" />
    <linearGradient
       inkscape:collect="always"
       xlink:href="#linearGradient16283"
       id="linearGradient16291"
       x1="243.97617"
       y1="-97.054359"
       x2="243.97617"
       y2="-55.658863"
       gradientUnits="userSpaceOnUse"
       gradientTransform="matrix(1.4525503,0,0,1.4580339,-240.63248,136.33618)" />
  </defs>
  <sodipodi:namedview
     pagecolor="#ffffff"
     bordercolor="#666666"
     borderopacity="1"
     objecttolerance="10"
     gridtolerance="10"
     guidetolerance="10"
     inkscape:pageopacity="0"
     inkscape:pageshadow="2"
     inkscape:window-width="1912"
     inkscape:window-height="1153"
     id="namedview4023"
     showgrid="false"
     borderlayer="true"
     inkscape:zoom="1"
     inkscape:cx="119.03012"
     inkscape:cy="-4.741773"
     inkscape:window-x="0"
     inkscape:window-y="0"
     inkscape:current-layer="svg4021"
     inkscape:window-maximized="1">
    <inkscape:grid
       type="xygrid"
       id="grid16100"
       empspacing="5"
       visible="true"
       enabled="true"
       snapvisiblegridlinesonly="true" />
  </sodipodi:namedview>
  <g
     id="layer5"
     inkscape:label="stripe"
     style="display:inline"
     transform="matrix(0.14936827,0,0,0.14936827,-107.54397,-322.0779)">
    <path
       style="fill:url(#radialGradient16130);fill-opacity:1;stroke:none"
       d="m 1296.2363,907.76995 0,479.39765 1166.9337,0 0,-479.39765 -1166.9337,0 z"
       id="rect4416" />
  </g>
  <g
     transform="matrix(0.09400811,0,0,0.09400811,292.35044,-47.66234)"
     id="layer1"
     inkscape:label="Layer 1">
    <rect
       inkscape:tile-y0="500.93362"
       inkscape:tile-x0="6.811959e-08"
       inkscape:tile-h="431.42856"
       inkscape:tile-w="182.85715"
       inkscape:tile-cy="716.6479"
       inkscape:tile-cx="91.428574"
       y="500.93362"
       x="6.811959e-08"
       height="431.42856"
       width="182.85715"
       id="rect2934"
       style="fill:#0000ff;fill-opacity:1;stroke:none" />
    <rect
       style="fill:#070a07;fill-opacity:1;stroke:none"
       id="use3708"
       width="182.85715"
       height="431.42856"
       x="6.811959e-08"
       y="500.93362"
       inkscape:tile-x0="6.811959e-08"
       inkscape:tile-y0="500.93362" />
    <rect
       style="fill:#2c2e2a;fill-opacity:1;stroke:none"
       id="use3710"
       width="182.85715"
       height="431.42856"
       x="182.85715"
       y="500.93362"
       inkscape:tile-x0="6.811959e-08"
       inkscape:tile-y0="500.93362" />
    <rect
       style="fill:#ffffff;fill-opacity:1;stroke:none"
       id="use3712"
       width="182.85715"
       height="431.42856"
       x="365.71429"
       y="500.93362"
       inkscape:tile-x0="6.811959e-08"
       inkscape:tile-y0="500.93362" />
    <rect
       style="fill:#ad1318;fill-opacity:1;stroke:none"
       id="use3714"
       width="182.85715"
       height="431.42856"
       x="548.57141"
       y="500.93362"
       inkscape:tile-x0="6.811959e-08"
       inkscape:tile-y0="500.93362" />
    <rect
       style="fill:#7d1117;fill-opacity:1;stroke:none"
       id="use3716"
       width="182.85715"
       height="431.42856"
       x="731.42859"
       y="500.93362"
       inkscape:tile-x0="6.811959e-08"
       inkscape:tile-y0="500.93362" />
  </g>
  <rect
     style="fill:url(#linearGradient16291);fill-opacity:1;stroke:none"
     id="rect16138"
     width="250.62251"
     height="60.110844"
     x="-32.81039"
     y="-4.9560795" />
  <text
     xml:space="preserve"
     style="font-size:40px;font-style:normal;font-weight:normal;fill:#000000;fill-opacity:1;stroke:none;font-family:Bitstream Vera Sans"
     x="103.90878"
     y="145.45325"
     id="text16050"><tspan
       sodipodi:role="line"
       id="tspan16052"
       x="103.90878"
       y="145.45325" /></text>
  <g
     transform="matrix(0.29766828,0,0,0.29766828,-634.28401,-383.24072)"
     label="scorpie"
     id="scorpie"
     groupmode="layer">
    <path
       id="outline"
       d="m 1729.9175,947.43687 c -23.1071,0.41293 -44.469,28.01542 -44.469,28.01542 -35.2178,-29.06487 -34.997,38.99921 -34.997,38.99921 -32.7625,15.1205 -24.2801,68.749 -24.2801,68.749 l 10.2279,2.2679 c -8.2115,16.0853 -12.8515,34.2425 -12.8515,53.4517 0,5.6711 0.4208,11.2143 1.2006,16.6758 -17.3286,2.9355 -50.6767,10.6293 -44.9135,25.6141 l -3.0684,6.1812 c 0,0 -15.4551,6.1829 -12.3623,16.2311 1.8547,6.0256 16.7266,18.1062 28.3711,26.8593 -4.2465,1.6764 -17.6821,7.7452 -14.3635,16.8536 3.9252,10.7669 53.9409,39.7553 53.9409,39.7553 l -24.5024,-37.265 c 0,0 43.943,-5.1771 59.4105,-19.255 1.9576,1.6087 3.9445,3.1824 6.0033,4.6692 -8.5135,4.0483 -14.1199,9.3937 -11.4731,16.2756 l -3.1127,6.1812 c 0,0 -15.4551,6.183 -12.3625,16.2312 3.0929,10.0481 42.5126,37.0871 42.5123,37.0871 l -19.3439,-34.7748 c 0,0 21.8533,-3.0249 36.9536,-10.8504 -1.586,21.6171 15.9068,48.0953 44.9138,64.7913 28.1019,16.1751 58.6545,18.2875 76.7977,7.2929 -9.0188,-1.3622 -18.9105,-4.7757 -28.46,-10.2724 -25.4662,-14.6578 -39.2446,-38.5103 -30.7726,-53.2293 8.4437,-14.6698 35.8388,-14.7335 61.2338,-0.2223 -7.6649,-9.9201 -18.2269,-19.1732 -31.0394,-26.548 -0.5047,-0.2905 -1.0056,-0.5633 -1.5118,-0.8449 7.2379,-3.4681 14.0606,-7.6469 20.4111,-12.4068 1.5357,7.053 4.216,14.3646 8.1378,21.4785 5.1798,9.3958 11.7593,17.1626 18.8548,22.8571 -10.1898,-18.6212 -9.8238,-38.4939 0.9338,-44.4245 10.7938,-5.9505 27.9483,4.4046 38.2433,23.0793 3.8608,7.003 6.203,14.2046 7.0706,20.7671 5.6643,-8.9696 6.8438,-22.3043 3.3352,-36.4646 5.9444,-3.7607 36.0464,-23.1469 39.1326,-32.24 3.4106,-10.0481 -13.652,-16.2311 -13.652,-16.2311 l -3.3797,-6.1812 c 3.218,-7.5857 -4.6474,-13.3026 -15.653,-17.4763 5.9453,-4.5431 11.0294,-9.0799 11.9623,-11.8287 2.4806,-7.3147 -9.9611,-11.7842 -9.9611,-11.7842 l -2.4458,-4.4914 c 4.5996,-10.8418 -21.8269,-16.4256 -35.7975,-18.588 -8.1828,-58.103 -58.9333,-102.9011 -120.0215,-102.9011 -29.3304,0 -56.2812,10.3108 -77.2872,27.4818 3.9236,-11.1513 6.6705,-20.2334 6.6705,-20.2334 14.5227,3.1966 29.0381,-35.21935 29.0381,-35.21935 12.5869,2.77043 61.5007,-12.85153 61.5007,-12.85153 0,0 16.1466,16.71332 23.9686,4.22456 7.8236,-12.48592 23.9687,0.22234 23.9687,0.22234 -37.3062,-51.85628 -47.5372,-14.54134 -47.5372,-14.54134 l -10.3611,-8.36015 c -7.8736,-9.55212 -16.4561,-12.95641 -24.8138,-12.80706 z m 0.3556,5.51415 c 16.0532,-0.503 21.9233,14.71956 21.9233,14.71922 -7.3656,4.71007 -56.1641,3.46857 -56.1641,3.46857 14.6398,-13.37026 25.8323,-17.9243 34.2408,-18.18779 z m -54.919,22.50127 c 3.513,-0.10943 6.0032,1.20066 6.0032,1.20066 l -17.7876,26.94815 c -4.2942,4.6596 -1.8412,9.9431 0.8895,13.5186 2.134,1.7016 3.8233,3.2856 3.9132,4.1356 0,0 -2.0172,-1.6535 -3.9132,-4.1356 -3.9682,-3.1644 -9.5162,-6.7148 -9.5162,-6.7148 3.3509,-29.38129 13.7045,-34.74367 20.4111,-34.95261 z m -24.2356,45.18041 c -7.8661,6.9739 -2.4013,46.9142 -2.4013,46.9147 l -17.6096,8.0044 c -2.5021,-35.3669 20.0109,-54.9191 20.0109,-54.9191 z m 93.6517,15.1195 c 58.1154,0 104.9464,46.2007 104.9467,103.1679 0,0.8226 -0.026,1.6277 -0.044,2.4457 -28.5236,42.1709 -104.4361,15.777 -148.5263,-15.2083 -41.8396,-29.4039 -57.5055,2.42 -61.3671,12.9849 -1e-4,-0.075 0,-0.1476 0,-0.2223 0,-56.9672 46.8756,-103.1679 104.9913,-103.1679 z m -12.7183,66.6144 56.8758,43.4017 c 12.6774,-21.5129 -56.8758,-43.4017 -56.8758,-43.4017 z m 95.4749,3.513 c -9.859,-0.3155 -13.6521,40.7336 -13.6521,40.7336 l 16.8983,-39.1772 c -1.1523,-1.0083 -2.2263,-1.5237 -3.2462,-1.5564 z m 37.2649,19.433 c 19.9301,-0.08 32.6847,14.0077 32.6847,14.0077 l -0.3113,7.0261 c -6.5125,0 -37.843,-12.9405 -37.843,-12.9405 l -0.9339,-7.6042 c 2.2096,-0.3428 4.3417,-0.4809 6.4035,-0.4891 z m -179.2987,22.2344 c 7.4974,-0.1862 18.0989,7.115 18.0989,7.115 93.1551,37.1508 142.4783,1.2896 142.4783,1.2896 -13.6995,34.5866 -147.9535,28.1858 -156.1749,26.9037 -8.2212,-1.2821 -15.0476,-19.2428 -10.9391,-30.7725 1.156,-3.2427 3.6031,-4.4629 6.5368,-4.5358 z m 216.6081,1.3341 c 0,0 14.2893,3.6518 6.2256,6.1812 l -6.2256,-6.1812 z m -36.8203,2.4902 c 12.0913,5.4956 29.0828,7.6042 29.0828,7.6042 l -4.1357,6.7593 c -9.764,-2.607 -19.561,-4.2212 -26.2366,-5.1584 0.5651,-3.0254 0.9617,-6.1049 1.2895,-9.2051 z m -240.8436,8.2713 c 2.569,0.012 5.2067,0.2405 7.96,0.7115 l -1.1563,10.4057 c 0,0 -39.0225,17.7876 -47.137,17.7876 l -0.4004,-9.6498 c 0,0 15.9006,-19.3646 40.7337,-19.255 z m 243.0672,5.3807 c 27.3901,-0.1096 44.9135,19.255 44.9135,19.255 l -0.4446,9.6498 c -8.9516,0 -51.9843,-17.7431 -51.9843,-17.7431 l -1.2896,-10.4502 c 3.0367,-0.471 5.9714,-0.7002 8.805,-0.7115 z m -26.1478,10.9838 c -15.318,19.7068 -111.9273,49.8467 -114.2852,51.0059 -2.3579,1.1592 -17.6541,-5.8042 -17.6541,-13.9188 0,-8.1146 8.2267,-13.9188 8.2267,-13.9188 20.0292,10.433 123.7126,-23.1683 123.7126,-23.1683 z m -207.0473,12.0956 c 1.6406,3.5581 3.4951,6.9992 5.4697,10.3612 -21.8324,4.2379 -47.5947,12.0471 -41.7563,24.8582 l -0.4003,0.667 -10.0499,-18.0544 c 0,0 34.4649,-4.7729 46.7368,-17.832 z m 219.7653,2.3568 c 0.098,0.1453 0.1637,0.3011 0.267,0.4447 -0.1366,-0.053 -0.2637,-0.1263 -0.4003,-0.1779 0.044,-0.089 0.089,-0.1774 0.1338,-0.2668 z m -276.1518,1.5564 -7.7377,8.4936 c -10.0482,-3.4777 7.7377,-8.4936 7.7377,-8.4936 z m 340.8986,5.4252 c 0,0 19.5758,5.0159 8.4937,8.4936 l -8.4937,-8.4936 z m -264.2341,2.7571 c 3.2606,0.013 6.644,0.2513 10.1388,0.756 l -1.4675,11.2061 c 0,0 -49.5096,19.0327 -59.8109,19.0327 l -0.489,-10.3612 c 0,0 20.1075,-20.7514 51.6286,-20.6336 z m 172.4059,0.044 c -6.7556,17.772 10.0499,65.4582 10.0499,65.4582 0,0 -8.7354,-12.4241 -15.2083,-34.0631 -6.473,-21.6391 5.1584,-31.3951 5.1584,-31.3951 z m 45.0914,2.2679 c 16.1383,6.3378 36.0642,8.8049 36.0642,8.8049 l -14.0965,27.9265 c -1.5985,-5.7569 -3.9037,-11.5989 -7.0707,-17.3429 -4.1922,-7.605 -9.3329,-14.1464 -14.897,-19.3885 z m -165.7356,27.4373 c 2.5689,0.012 5.2067,0.2406 7.9599,0.7115 l -1.1563,10.4502 c 0,0 -39.0224,17.7432 -47.1369,17.7432 l -0.3559,-9.6498 c 0,0 15.8558,-19.3646 40.6892,-19.2551 z m 172.8061,1.3786 c 0.3687,-0.019 0.728,-0.01 1.1117,0 1.4171,0.026 2.916,0.2529 4.4915,0.756 6.3504,14.3056 4.2245,27.793 4.2245,27.793 0,0 -2.806,-11.9558 -8.1378,-18.0099 -5.332,-6.0538 -10.3167,-7.6931 -10.3167,-7.6931 -0.6653,0.5059 3.0967,-2.5555 8.6268,-2.846 z m -283.5782,3.602 -9.7831,9.0716 c -12.7539,-3.728 9.7831,-9.0716 9.7831,-9.0716 z m 182.3225,16.8982 c 0.5259,-0.014 1.0688,-0.021 1.6453,0 18.4599,0.6836 23.2573,9.6053 23.2573,9.6053 0,0 -15.0526,-3.4463 -23.2573,-0.7116 -8.2042,2.7349 -10.9391,7.5153 -10.9391,7.5153 0.6621,1.3247 -7.0081,-15.9492 9.2938,-16.409 z m -66.0362,3.4241 c 9.7179,38.1966 90.2273,86.1807 90.2273,86.1807 0,0 -27.7269,-5.6924 -62.4343,-29.2605 -34.7073,-23.5681 -27.793,-56.9202 -27.793,-56.9202 z m -52.0288,7.115 -7.7375,8.4936 c -10.0483,-3.4777 7.7375,-8.4936 7.7375,-8.4936 z"
       style="color:#000000;fill:#000000;fill-opacity:1;stroke:none;stroke-width:7;marker:none;visibility:visible;display:inline;overflow:visible;enable-background:accumulate" />
  </g>
  <path
     style="fill:#ffffff;fill-opacity:1;stroke:none"
     d="m 53.188986,-1.2183884 c 3.080175,5.5665799 4.827477,11.9268124 4.827515,18.7116084 0,0.31262 -0.03345,0.606764 -0.03983,0.917632 C 47.136773,34.437166 18.318284,24.441127 1.562563,12.665709 -2.5912261,9.7465161 -6.0767023,8.4195908 -8.9701982,8.117467 l 0,43.288053 56.0550352,0 c -1.631825,-7.292296 2.274118,-10.612552 2.274118,-10.612552 -0.944207,2.483924 -0.67499,6.520292 0.03983,10.612552 l 23.938094,0 c -0.351117,-0.792202 -0.723759,-1.608015 -1.157007,-2.39381 -1.593181,-2.890146 -3.550809,-5.348845 -5.665346,-7.341016 6.133078,2.408571 13.684603,3.351333 13.684603,3.351333 l -3.231645,6.383493 5.386073,0 c 3.481585,-2.556001 6.96104,-5.436376 7.580398,-7.261219 1.296147,-3.818605 -5.186581,-6.184009 -5.186581,-6.184009 L 83.470675,35.60638 c 1.222947,-2.882819 -1.762143,-5.036729 -5.944626,-6.622875 2.259412,-1.726528 4.193698,-3.463709 4.54823,-4.508339 0.94271,-2.779827 -3.790192,-4.468441 -3.790192,-4.468441 L 77.326565,18.291157 C 79.074552,14.170921 69.031018,12.051204 63.721746,11.229422 63.104591,6.8471851 61.846992,2.6719883 60.051239,-1.2183884 l -6.862253,0 z M 13.292166,3.6091275 34.916242,20.086514 C 39.734068,11.910911 13.292166,3.6091275 13.292166,3.6091275 z M 49.598272,4.9257222 C 45.851534,4.8058274 44.371789,20.405693 44.371789,20.405693 L 50.795177,5.5241747 C 50.35727,5.1409876 49.985866,4.9381499 49.598272,4.9257222 z m 14.123474,7.3809098 c 7.574091,-0.03043 12.447805,5.346174 12.447805,5.346174 l -0.119622,2.673091 c -2.474956,0 -14.402753,-4.907308 -14.402753,-4.907308 l -0.359072,-2.912473 c 0.839724,-0.130275 1.650158,-0.196361 2.433708,-0.199484 z m -68.1038735,8.458131 c 2.8492595,-0.07078 6.8622549,2.712982 6.8622549,2.712982 C 37.882102,37.59626 56.620113,23.95651 56.620113,23.95651 51.413852,37.100538 0.41793883,34.697227 -2.7064613,34.209991 -5.8307842,33.722747 -8.4569914,26.861985 -6.8956271,22.480324 -6.456303,21.247994 -5.49703,20.792469 -4.3821275,20.764763 z M 77.92501,21.283419 c 0,0 5.418375,1.392661 2.353911,2.353912 L 77.92501,21.283419 z m -14.00378,0.957523 c 4.59508,2.088509 11.051416,2.872574 11.051416,2.872574 l -1.555975,2.553396 c -3.710651,-0.990744 -7.437252,-1.598777 -9.974204,-1.954943 0.214769,-1.149754 0.354187,-2.292846 0.478763,-3.471027 z m 0.837826,5.186588 c 10.409148,-0.04166 17.075848,7.301117 17.075848,7.301117 l -0.159593,3.670511 c -3.401892,0 -19.748922,-6.742563 -19.748922,-6.742563 L 61.40773,27.666912 c 1.154048,-0.178995 2.274475,-0.235084 3.351326,-0.239382 z m -9.9343,4.149269 C 49.003421,39.066025 12.313104,50.526123 11.417015,50.966653 10.520939,51.407191 4.6744524,48.784089 4.6744524,45.700276 4.6744524,42.616462 7.8263013,40.394 7.8263013,40.394 15.438041,44.358874 54.824756,31.576799 54.824756,31.576799 z m 4.827515,5.50576 c 0.03728,0.05523 0.08043,0.105021 0.119627,0.159585 -0.05196,-0.02014 -0.107753,-0.02028 -0.159588,-0.03991 0.01673,-0.03378 0.02298,-0.08572 0.03983,-0.119688 z m 24.616341,2.67309 c 0,0 7.443198,1.870105 3.231637,3.191747 l -3.231637,-3.191747 z"
     id="rect16254" />
  <text
     xml:space="preserve"
     style="font-size:31.58026123px;font-style:normal;font-variant:normal;font-weight:normal;font-stretch:normal;text-align:start;line-height:125%;writing-mode:lr-tb;text-anchor:start;fill:#ffffff;fill-opacity:1;stroke:#ffffff;stroke-width:0.20032053;stroke-miterlimit:4;stroke-opacity:1;stroke-dasharray:none;font-family:Dustismo;-inkscape-font-specification:Dustismo"
     x="95.72686"
     y="29.907551"
     id="text16140"
     sodipodi:linespacing="125%"
     transform="scale(0.82502705,1.2120815)"><tspan
       sodipodi:role="line"
       id="tspan16142"
       x="95.72686"
       y="29.907551"
       style="stroke-width:0.20032053">aptosid</tspan></text>
</svg>
