/* XPM */
static char *install_usb_gui_16[] = {
/* columns rows colors chars-per-pixel */
"16 16 103 2 ",
"   c gray16",
".  c #313131",
"X  c #333130",
"o  c #323232",
"O  c gray20",
"+  c #343434",
"@  c #353535",
"#  c gray21",
"$  c #373737",
"%  c #383736",
"&  c #3B3636",
"*  c #373837",
"=  c #383937",
"-  c #393939",
";  c #3A3A3A",
":  c gray23",
">  c #3B3C3A",
",  c #3C3D3B",
"<  c #3C3C3C",
"1  c #3C3D3C",
"2  c gray24",
"3  c #3E3F3D",
"4  c #3E3E3E",
"5  c #3F3F3E",
"6  c #3F3F3F",
"7  c #5B0405",
"8  c #7F0F12",
"9  c #611415",
"0  c #6D1012",
"q  c #6B1214",
"w  c #651919",
"e  c #781012",
"r  c #751A1B",
"t  c #4E2021",
"y  c #412D2C",
"u  c #662021",
"i  c gray25",
"p  c #414141",
"a  c gray26",
"s  c #434342",
"d  c #434343",
"f  c #434443",
"g  c #444444",
"h  c gray27",
"j  c gray28",
"k  c #484948",
"l  c #494948",
"z  c #494949",
"x  c #4C4C4C",
"c  c #4D4E4D",
"v  c #4E4E4E",
"b  c gray31",
"n  c #505050",
"m  c gray33",
"M  c gray35",
"N  c #616261",
"B  c #646464",
"V  c gray42",
"C  c #777777",
"Z  c #777778",
"A  c gray47",
"S  c gray48",
"D  c gray49",
"F  c gray50",
"G  c #830B0C",
"H  c #980304",
"J  c #831012",
"K  c #971515",
"L  c #BB0E10",
"P  c #B11313",
"I  c #B71617",
"U  c #BA1416",
"Y  c #CE0B0E",
"T  c #DC0304",
"R  c #C11313",
"E  c #D01B1B",
"W  c #E00506",
"Q  c #E80507",
"!  c #EF0405",
"~  c #F20303",
"^  c #F40202",
"/  c #F60203",
"(  c #89898A",
")  c gray54",
"_  c #88898C",
"`  c #91908E",
"'  c #939393",
"]  c #959595",
"[  c #A9A6A2",
"{  c #A4A5A8",
"}  c gray68",
"|  c #B4B3AE",
" . c #AFB1B0",
".. c #B1B0B1",
"X. c #B6B6B6",
"o. c #B9BAB8",
"O. c #C7C9CF",
"+. c gainsboro",
"@. c #DCDDE0",
"#. c #E6E7E8",
"$. c #E8E9EA",
"%. c #EDEDEE",
"&. c None",
/* pixels */
"&.&.&.< . &.&.&.&.&.&.&.&.&.&.&.",
"&.&.< = $ & &.&.&.&.&.&.&.&.&.&.",
"&.f 5 , > , i + &.&.&.&.&.&.&.&.",
", l f f X I I & < &.&.&.&.&.&.&.",
"+ c k y L T Q G > i &.&.&.&.&.&.",
"&.i l q ! P R H 9 n i &.&.&.&.&.",
"&.  c e ~ K E T 0 a M < &.&.&.&.",
"&.&.; u 7 / ~ Y t 5 S S g &.&.&.",
"&.&.&.; r J 8 w & B Z : j &.&.&.",
"&.&.&.&.g ; . < V D < $ c &.&.&.",
"&.&.&.&.&.g k F ( l : b { _ &.&.",
"&.&.&.&.&.&.g A N l m X.@...( &.",
"&.&.&.&.&.&.&.l c n } %.#.` O.Z ",
"&.&.&.&.&.&.&.&.&.&.] | [ $. .&.",
"&.&.&.&.&.&.&.&.&.&.&.' +.o.&.&.",
"&.&.&.&.&.&.&.&.&.&.&.&.&.&.&.&."
};
