/* XPM */
static char *install_usb_gui___[] = {
/* columns rows colors chars-per-pixel */
"16 16 93 2",
"   c #282828",
".  c #313131",
"X  c #323232",
"o  c #333333",
"O  c #343131",
"+  c #343434",
"@  c #353535",
"#  c #363636",
"$  c #373737",
"%  c #383636",
"&  c #3B3636",
"*  c #383837",
"=  c #383937",
"-  c #393939",
";  c #3A3A3A",
":  c #3B3B3B",
">  c #3B3C3A",
",  c #3C3D3B",
"<  c #3C3C3C",
"1  c #3C3D3C",
"2  c #3D3D3D",
"3  c #3E3F3D",
"4  c #3E3E3E",
"5  c #3F3F3E",
"6  c #3F3F3F",
"7  c #5B0405",
"8  c #5C1D1D",
"9  c #7F0F12",
"0  c #611415",
"q  c #6D1012",
"w  c #6B1214",
"e  c #781012",
"r  c #751A1B",
"t  c #492425",
"y  c #412D2C",
"u  c #662021",
"i  c #404040",
"p  c #414141",
"a  c #424242",
"s  c #434343",
"d  c #444444",
"f  c #454545",
"g  c #474747",
"h  c #484848",
"j  c #484948",
"k  c #494948",
"l  c #494949",
"z  c #494A49",
"x  c #4C4C4C",
"c  c #4D4D4D",
"v  c #4D4E4D",
"b  c #4F4F4F",
"n  c #505050",
"m  c #545454",
"M  c #767878",
"N  c #830B0C",
"B  c #980304",
"V  c #831012",
"C  c #971515",
"Z  c #BB0E10",
"A  c #B11313",
"S  c #B71617",
"D  c #BA1416",
"F  c #CE0B0E",
"G  c #DC0304",
"H  c #C11313",
"J  c #D01B1B",
"K  c #E00506",
"L  c #E80507",
"P  c #EF0405",
"I  c #F20303",
"U  c #F40202",
"Y  c #F60203",
"T  c #888989",
"R  c #88898A",
"E  c #91908E",
"W  c #939393",
"Q  c #949494",
"!  c #A3A5A7",
"~  c #A9A6A2",
"^  c #AFAFAF",
"/  c #B3B2AE",
"(  c #B0B0B1",
")  c #B0B1B1",
"_  c #B6B7B7",
"`  c #B9BAB9",
"'  c #C8C9CF",
"]  c #DBDBDB",
"[  c #DCDDE0",
"{  c #E6E7E8",
"}  c #E8E9EA",
"|  c #EDEDEE",
" . c None",
/* pixels */
" . . .< +  . . . . . . . . . . .",
" . .< = $ $  . . . . . . . . . .",
" .s 5 , > > 5 o  . . . . . . . .",
"> k d f o D D % <  . . . . . . .",
"o v g O Z K L N = p  . . . . . .",
" .p g w I A H B 0 b s  . . . . .",
" .  v 9 U C J G q y 5 <  . . . .",
" . .; u 7 Y Y F y ; o s f  . . .",
" . . .< r V V 8 $ o < + g  . . .",
" . . . .s $ o + o < $ + v  . . .",
" . . . . .s < o ; 6 ; n ! R  . .",
" . . . . . .l p l l m _ [ ) R  .",
" . . . . . . .l v b ^ | { E ' M ",
" . . . . . . . . . .Q / ~ } )  .",
" . . . . . . . . . . .Q ] `  . .",
" . . . . . . . . . . . . . . . ."
};
