/* XPM */
static char *install_usb_gui[] = {
/* columns rows colors chars-per-pixel */
"32 32 240 2",
"   c #160202",
".  c #1F1F1F",
"X  c #260000",
"o  c #351414",
"O  c #301A1A",
"+  c #3E1F1E",
"@  c #212020",
"#  c #232323",
"$  c #252525",
"%  c #272727",
"&  c #2E2322",
"*  c #282828",
"=  c #292929",
"-  c #2A2A2A",
";  c #2B2B2B",
":  c #2C2C2C",
">  c #2D2D2D",
",  c #2E2E2E",
"<  c #2F2F2F",
"1  c #332121",
"2  c #342424",
"3  c #3A2221",
"4  c #30322F",
"5  c #303030",
"6  c #313131",
"7  c #323231",
"8  c #323232",
"9  c #333333",
"0  c #343434",
"q  c #353535",
"w  c #363636",
"e  c #373737",
"r  c #373936",
"t  c #383838",
"y  c #393939",
"u  c #3A3A39",
"i  c #3A3A3A",
"p  c #3B3B3A",
"a  c #3B3B3B",
"s  c #3C3C3C",
"d  c #3D3D3D",
"f  c #3D3F3C",
"g  c #3D3F3D",
"h  c #3E3E3E",
"j  c #3F3F3F",
"k  c #5F0202",
"l  c #431111",
"z  c #471C1C",
"x  c #4B1818",
"c  c #551615",
"v  c #581414",
"b  c #600506",
"n  c #610707",
"m  c #640506",
"M  c #690405",
"N  c #610909",
"B  c #630808",
"V  c #65090C",
"C  c #7B090B",
"Z  c #651313",
"A  c #651414",
"S  c #404040",
"D  c #414141",
"F  c #424340",
"G  c #424341",
"H  c #424342",
"J  c #434343",
"K  c #424442",
"L  c #434442",
"P  c #444444",
"I  c #454544",
"U  c #454545",
"Y  c #454645",
"T  c #454745",
"R  c #464646",
"E  c #464746",
"W  c #474747",
"Q  c #464944",
"!  c #474845",
"~  c #474846",
"^  c #484848",
"/  c #484948",
"(  c #494948",
")  c #494949",
"_  c #494A49",
"`  c #4A4A4A",
"'  c #4D4D4C",
"]  c #4D4D4D",
"[  c #4E4E4E",
"{  c #4F4F4F",
"}  c #4F504E",
"|  c #50504F",
" . c #505050",
".. c #505150",
"X. c #515150",
"o. c #515151",
"O. c #525251",
"+. c #525252",
"@. c #535353",
"#. c #545454",
"$. c #545554",
"%. c #555555",
"&. c #565655",
"*. c #565656",
"=. c #575757",
"-. c #585857",
";. c #595958",
":. c #5A5A5A",
">. c #5B5B5A",
",. c #5B5B5B",
"<. c #5D5D5D",
"1. c #5E5E5E",
"2. c #606260",
"3. c #626262",
"4. c #646463",
"5. c #646464",
"6. c #656665",
"7. c #676767",
"8. c #686868",
"9. c #810405",
"0. c #8D0404",
"q. c #860C0C",
"w. c #8C0C0D",
"e. c #8D0D0E",
"r. c #9B090A",
"t. c #9F090A",
"y. c #9A0A0C",
"u. c #890D10",
"i. c #8F0D11",
"p. c #990F12",
"a. c #9A0F12",
"s. c #9E0F13",
"d. c #8F1818",
"f. c #9F1010",
"g. c #AD0101",
"h. c #A70809",
"j. c #A80B0F",
"k. c #BD0607",
"l. c #B10708",
"z. c #B40708",
"x. c #B30809",
"c. c #BB090B",
"v. c #A30F12",
"b. c #B90F13",
"n. c #BB0F13",
"m. c #BD0F13",
"M. c #A11212",
"N. c #A51010",
"B. c #A61313",
"V. c #B01013",
"C. c #B41014",
"Z. c #CE0303",
"A. c #C20708",
"S. c #C10808",
"D. c #C6080B",
"F. c #CF0B0E",
"G. c #CC0C0F",
"H. c #CD0C0F",
"J. c #D50101",
"K. c #D30709",
"L. c #DC0608",
"P. c #D4090B",
"I. c #D10B0D",
"U. c #D6090C",
"Y. c #D40A0C",
"T. c #D60A0C",
"R. c #DB080A",
"E. c #DA090B",
"W. c #DD080A",
"Q. c #C20E12",
"!. c #C30E12",
"~. c #C50D11",
"^. c #C70D10",
"/. c #C60D11",
"(. c #C40E11",
"). c #C90C10",
"_. c #C80D10",
"`. c #E70607",
"'. c #EC0304",
"]. c #ED0304",
"[. c #E80507",
"{. c #EB0506",
"}. c #E00709",
"|. c #E10709",
" X c #E30708",
".X c #E50608",
"XX c #F50000",
"oX c #F40101",
"OX c #F50203",
"+X c #FB0101",
"@X c #F90102",
"#X c #FD0101",
"$X c #FF0303",
"%X c #FF0505",
"&X c #FF0808",
"*X c #FF0909",
"=X c #F11616",
"-X c #FF1010",
";X c #FA1414",
":X c #F31E1E",
">X c #FF1F1F",
",X c #FA2626",
"<X c #84796D",
"1X c #867B6F",
"2X c #84837A",
"3X c #919292",
"4X c #999991",
"5X c #A4A49B",
"6X c #A8AAAA",
"7X c #ACACAB",
"8X c #ABADAE",
"9X c #B3B5B4",
"0X c #B7B8B7",
"qX c #B9B9B7",
"wX c #BEC0C2",
"eX c #C0C0C0",
"rX c #C7C9CB",
"tX c #C7C9CC",
"yX c #C8C8C8",
"uX c #C9C9C9",
"iX c #C8C9CC",
"pX c #C8CACE",
"aX c #CACCD3",
"sX c #D2D4D9",
"dX c #D4D6D8",
"fX c #D5D6D8",
"gX c #DBDBDB",
"hX c #DCDCDD",
"jX c #DCDDDF",
"kX c #DCDDE0",
"lX c #E2E3E5",
"zX c #E4E4E4",
"xX c #E5E5E6",
"cX c #E8E9EA",
"vX c #EAEAEA",
"bX c #EAEAEB",
"nX c #EBEBEC",
"mX c #ECECED",
"MX c #EDEDEE",
"NX c None",
/* pixels */
"NXNXNXNXNXNXNXNXNXNXNXNXNXNXNXNXNXNXNXNXNXNXNXNXNXNXNXNXNXNXNXNX",
"NXNXNXNXNXNXd e e > $ NXNXNXNXNXNXNXNXNXNXNXNXNXNXNXNXNXNXNXNXNX",
"NXNXNXNX^ y E L G E r . NXNXNXNXNXNXNXNXNXNXNXNXNXNXNXNXNXNXNXNX",
"NXNXNX@.y E 4 4 4 4 G I * # NXNXNXNXNXNXNXNXNXNXNXNXNXNXNXNXNXNX",
"NXNX] s ~ r r r r r r f ^ d * NXNXNXNXNXNXNXNXNXNXNXNXNXNXNXNXNX",
"NX/ s ^ g g f f s s f f g ~ ^ > NXNXNXNXNXNXNXNXNXNXNXNXNXNXNXNX",
"NXd ] G G G L G G e 1 v c 2 p @.6 NXNXNXNXNXNXNXNXNXNXNXNXNXNXNX",
"NXy ..T T E E L + E.s.b.C.f.Y.2 &.6 NXNXNXNXNXNXNXNXNXNXNXNXNXNX",
"NXy @.E ^ ^ ^ x i._.T.W.W.Y.j.B 3 &.e NXNXNXNXNXNXNXNXNXNXNXNXNX",
"NX6 &.^ ^ ^ 6 C _.|.].J.@X'.M y.T.y &.e NXNXNXNXNXNXNXNXNXNXNXNX",
"NX* ^ ] ^ ^ A n.E.OXS.B ;X0.Z.T.V.z ^ <.t NXNXNXNXNXNXNXNXNXNXNX",
"NXNX# @.W E x./.`.%XN.,Xd.=XX 9.Q.w.E ^ 5.> NXNXNXNXNXNXNXNXNXNX",
"NXNXNX> &.G A._.`.%XN.N M.f.g.L./.t.T J y =.> NXNXNXNXNXNXNXNXNX",
"NXNXNX$  .W w.Q.L.oXn :X,X-X@XW.m.A j e 6 y #.9 NXNXNXNXNXNXNXNX",
"NXNXNXNX: <.O p.n b OX&X%X#X[.F.u.# 9 6 6 9 0 #.y NXNXNXNXNXNXNX",
"NXNXNXNXNX6 { h.  m .X'.].|.I.C.q.6 9 6 9 6 6 G @.] NXNXNXNXNXNX",
"NXNXNXNXNX> e a z.v._.).).Q.f.t.y 9 6 9 0 6 0 0 #.] NXNXNXNXNXNX",
"NXNXNXNXNXNX< G ^ l k.c.D.x.o 6 6 6 9 6 6 G 6 6 U U <.NXNXNXNXNX",
"NXNXNXNXNXNXNX6 G #.6 * * 0 d 6 9 6 6 9 s 6 6 6 S { ,.NXNXNXNXNX",
"NXNXNXNXNXNXNXNXt d &.0 6 6 9 6 6 9 6 j 9 6 9 S  .#.NXNXNXNXNXNX",
"NXNXNXNXNXNXNXNXNXa d =.9 6 6 9 9 6 s 6 9 6 G  .3.wX,.NXNXNXNXNX",
"NXNXNXNXNXNXNXNXNXNX6 t ^ 6 9 6 6 E d p d ^ @.5.pXaXrX,.NXNXNXNX",
"NXNXNXNXNXNXNXNXNXNXNX. e @.6 6 J E E E  .#.5.fXkXsXaXtX,.NXNXNX",
"NXNXNXNXNXNXNXNXNXNXNXNX> y ^ S ^ ^ ^ @.#.7.hXbXlXkX4X3XpX,.NXNX",
"NXNXNXNXNXNXNXNXNXNXNXNXNXy y ,.-.' ] @.8.gXMXbXbXjXQ 1XaXrX,.NX",
"NXNXNXNXNXNXNXNXNXNXNXNXNXNXNX^ E ] @.,.eXzXbXMXbXcXsXkXsXaX6XNX",
"NXNXNXNXNXNXNXNXNXNXNXNXNXNXNXNXNX,.<.NXNXuXxX5X2.xXbXlXkX8XNXNX",
"NXNXNXNXNXNXNXNXNXNXNXNXNXNXNXNXNXNXNXNXNXNXuX2X1XnXnXcX9XNXNXNX",
"NXNXNXNXNXNXNXNXNXNXNXNXNXNXNXNXNXNXNXNXNXNXNXuXzXbXMXqXNXNXNXNX",
"NXNXNXNXNXNXNXNXNXNXNXNXNXNXNXNXNXNXNXNXNXNXNXNXyXxX0XNXNXNXNXNX",
"NXNXNXNXNXNXNXNXNXNXNXNXNXNXNXNXNXNXNXNXNXNXNXNXNX7XNXNXNXNXNXNX",
"NXNXNXNXNXNXNXNXNXNXNXNXNXNXNXNXNXNXNXNXNXNXNXNXNXNXNXNXNXNXNXNX"
};
